<?xml version="1.0" encoding="UTF-8"?>
<!DOCTYPE svg PUBLIC "-//W3C//DTD SVG 1.1//EN" "http://www.w3.org/Graphics/SVG/1.1/DTD/svg11.dtd">
<!-- Creator: CorelDRAW -->
<svg xmlns="http://www.w3.org/2000/svg" xml:space="preserve" width="3.64mm" height="3.64mm" version="1.1" style="shape-rendering:geometricPrecision; text-rendering:geometricPrecision; image-rendering:optimizeQuality; fill-rule:evenodd; clip-rule:evenodd"
viewBox="0 0 2.22 2.22"
 xmlns:xlink="http://www.w3.org/1999/xlink"
 xmlns:xodm="http://www.corel.com/coreldraw/odm/2003">
 <defs>
  <style type="text/css">
   <![CDATA[
    .str0 {stroke:#663399;stroke-width:0.12;stroke-miterlimit:22.9256}
    .fil0 {fill:none;fill-rule:nonzero}
    .fil1 {fill:#4C4F69;fill-rule:nonzero}
   ]]>
  </style>
 </defs>
 <g id="Capa_x0020_1">
  <metadata id="CorelCorpID_0Corel-Layer"/>
  <path class="fil0 str0" d="M0.06 0.06l1.77 0c0.09,0 0.17,0.04 0.24,0.1 0.06,0.06 0.1,0.15 0.1,0.24l0 1.43c0,0.09 -0.04,0.17 -0.1,0.24 -0.06,0.06 -0.15,0.1 -0.24,0.1l-1.43 0c-0.09,0 -0.17,-0.04 -0.24,-0.1 -0.06,-0.06 -0.1,-0.15 -0.1,-0.24l0 -1.77z"/>
  <path class="fil1" d="M1.78 2c-0.07,0 -0.12,-0.02 -0.16,-0.06 -0.04,-0.04 -0.05,-0.1 -0.06,-0.17l0.15 0c0,0.07 0.02,0.1 0.07,0.1 0.02,0 0.04,-0.01 0.05,-0.02 0.01,-0.01 0.01,-0.04 0.01,-0.07 0,-0.03 -0.01,-0.05 -0.02,-0.06 -0.02,-0.02 -0.04,-0.04 -0.06,-0.04l-0.05 -0.03c-0.05,-0.02 -0.08,-0.05 -0.11,-0.08 -0.02,-0.03 -0.03,-0.08 -0.03,-0.13 0,-0.06 0.02,-0.12 0.06,-0.16 0.04,-0.04 0.09,-0.06 0.16,-0.06 0.06,0 0.11,0.02 0.15,0.06 0.04,0.04 0.05,0.1 0.06,0.17l-0.14 0c0,-0.02 -0,-0.05 -0.01,-0.07 -0.01,-0.02 -0.02,-0.02 -0.05,-0.02 -0.04,0 -0.06,0.02 -0.06,0.07 0,0.02 0.01,0.04 0.02,0.06 0.01,0.02 0.03,0.03 0.05,0.04l0.05 0.02c0.05,0.02 0.09,0.05 0.12,0.09 0.02,0.04 0.04,0.08 0.04,0.15 0,0.07 -0.02,0.13 -0.06,0.17 -0.04,0.04 -0.09,0.06 -0.16,0.06zm-0.47 0c-0.07,0 -0.12,-0.02 -0.16,-0.06 -0.04,-0.04 -0.05,-0.1 -0.06,-0.17l0.15 0c0,0.07 0.02,0.1 0.07,0.1 0.02,0 0.04,-0.01 0.05,-0.02 0.01,-0.01 0.01,-0.04 0.01,-0.07 0,-0.03 -0.01,-0.05 -0.02,-0.06 -0.02,-0.02 -0.04,-0.04 -0.06,-0.04l-0.05 -0.03c-0.05,-0.02 -0.08,-0.05 -0.11,-0.08 -0.02,-0.03 -0.03,-0.08 -0.03,-0.13 0,-0.06 0.02,-0.12 0.06,-0.16 0.04,-0.04 0.09,-0.06 0.16,-0.06 0.06,0 0.11,0.02 0.15,0.06 0.04,0.04 0.05,0.1 0.06,0.17l-0.14 0c0,-0.02 -0,-0.05 -0.01,-0.07 -0.01,-0.02 -0.02,-0.02 -0.05,-0.02 -0.04,0 -0.06,0.02 -0.06,0.07 0,0.02 0.01,0.04 0.02,0.06 0.01,0.02 0.03,0.03 0.05,0.04l0.05 0.02c0.05,0.02 0.09,0.05 0.12,0.09 0.02,0.04 0.04,0.08 0.04,0.15 0,0.07 -0.02,0.13 -0.06,0.17 -0.04,0.04 -0.09,0.06 -0.16,0.06zm-0.49 0c-0.07,0 -0.12,-0.02 -0.16,-0.05 -0.04,-0.04 -0.06,-0.09 -0.06,-0.16l0 -0.35c0,-0.07 0.02,-0.12 0.06,-0.16 0.04,-0.04 0.1,-0.06 0.16,-0.06 0.07,0 0.12,0.02 0.16,0.06 0.04,0.04 0.06,0.09 0.06,0.17l0 0.03 -0.15 0 0 -0.03c0,-0.03 -0.01,-0.05 -0.02,-0.06 -0.01,-0.01 -0.01,-0.01 -0.02,-0.02 -0.01,-0 -0.02,-0.01 -0.03,-0.01 -0.03,0 -0.04,0.01 -0.05,0.03 -0.01,0.02 -0.02,0.05 -0.01,0.08l0 0.31c0,0.06 0.02,0.1 0.07,0.1 0.02,0 0.04,-0.01 0.05,-0.02 0.01,-0.02 0.02,-0.04 0.02,-0.06l0 -0.02 0.15 0 0 0.02c0,0.05 -0.01,0.09 -0.03,0.12 -0.02,0.03 -0.05,0.06 -0.08,0.07 -0.04,0.02 -0.08,0.03 -0.11,0.02z"/>
 </g>
</svg>
